HIERARCHY
ROOT Hips
{
	OFFSET 0.000000 0.000000 0.000000 
	CHANNELS 6 Xposition Yposition Zposition Zrotation Yrotation Xrotation
	JOINT LeftUpLeg
	{
		OFFSET 1.363060 -1.794630 0.839290 
		CHANNELS 3 Zrotation Yrotation Xrotation
		JOINT LeftLeg
		{
			OFFSET 2.448110 -6.726130 0.000000 
			CHANNELS 3 Zrotation Yrotation Xrotation
			JOINT LeftFoot
			{
				OFFSET 2.562200 -7.039590 0.000000 
				CHANNELS 3 Zrotation Yrotation Xrotation
				JOINT LeftToeBase
				{
					OFFSET 0.157640 -0.433110 2.322550 
					CHANNELS 3 Zrotation Yrotation Xrotation
					End Site
					{
						OFFSET 0.000000 0.000000 0.000000 
					}
				}
			}
		}
	}
	JOINT RightUpLeg
	{
		OFFSET -1.305520 -1.794630 0.839290 
		CHANNELS 3 Zrotation Yrotation Xrotation
		JOINT RightLeg
		{
			OFFSET -2.542530 -6.985550 0.000000 
			CHANNELS 3 Zrotation Yrotation Xrotation
			JOINT RightFoot
			{
				OFFSET -2.568260 -7.056230 0.000000 
				CHANNELS 3 Zrotation Yrotation Xrotation
				JOINT RightToeBase
				{
					OFFSET -0.164730 -0.452590 2.363150 
					CHANNELS 3 Zrotation Yrotation Xrotation
					End Site
					{
						OFFSET 0.000000 0.000000 0.000000 
					}
				}
			}
		}
	}
	JOINT Spine
	{
		OFFSET 0.028270 2.035590 -0.193380 
		CHANNELS 3 Zrotation Yrotation Xrotation
		JOINT Spine1
		{
			OFFSET 0.056720 2.048850 -0.042750 
			CHANNELS 3 Zrotation Yrotation Xrotation
			JOINT Neck1
			{
				OFFSET -0.054170 1.746240 0.172020 
				CHANNELS 3 Zrotation Yrotation Xrotation
				JOINT Head
				{
					OFFSET 0.104070 1.761360 -0.123970 
					CHANNELS 3 Zrotation Yrotation Xrotation
					End Site
					{
						OFFSET 0.000000 0.000000 0.000000 
					}
				}
			}
			JOINT LeftArm
			{
				OFFSET 3.362410 1.200890 -0.311210 
				CHANNELS 3 Zrotation Yrotation Xrotation
				JOINT LeftForeArm
				{
					OFFSET 4.983000 -0.000000 -0.000000 
					CHANNELS 3 Zrotation Yrotation Xrotation
					JOINT LeftHand
					{
						OFFSET 3.483560 -0.000000 -0.000000 
						CHANNELS 3 Zrotation Yrotation Xrotation
						JOINT LeftHandIndex1
						{
							OFFSET 0.715260 -0.000000 -0.000000 
							CHANNELS 3 Zrotation Yrotation Xrotation
							End Site
							{
								OFFSET 0.000000 0.000000 0.000000 
							}
						}
					}
				}
			}
			JOINT RightArm
			{
				OFFSET -3.136600 1.374050 -0.404650 
				CHANNELS 3 Zrotation Yrotation Xrotation
				JOINT RightForeArm
				{
					OFFSET -5.241900 -0.000000 -0.000000 
					CHANNELS 3 Zrotation Yrotation Xrotation
					JOINT RightHand
					{
						OFFSET -3.444170 -0.000000 -0.000000 
						CHANNELS 3 Zrotation Yrotation Xrotation
						JOINT RightHandIndex1
						{
							OFFSET -0.622530 -0.000000 -0.000000 
							CHANNELS 3 Zrotation Yrotation Xrotation
							End Site
							{
								OFFSET 0.000000 0.000000 0.000000 
							}
						}
					}
				}
			}
		}
	}
}
MOTION
Frames: 12
Frame Time: 0.041667
9.557931 17.817773 -14.165378 -4.697564 -37.093594 4.027641 -12.212133 -1.507139 -7.406094 1.905303 11.393257 31.496356 -1.661737 9.537571 -13.517797 0.004600 0.437500 1.202200 11.342898 10.152711 -9.929668 -2.845982 -11.856127 32.710540 0.176120 -3.757134 -9.738162 -0.128700 -2.312100 6.369100 0.799474 -1.221236 -2.047958 7.852090 -0.429970 -2.729295 7.936855 -10.291264 15.089912 6.506300 -6.014700 10.602500 -88.078537 2.014097 26.347607 13.207748 -22.674241 -2.406615 0.695977 -0.012464 15.510664 -7.125000 0.000000 0.000000 82.373854 -5.132929 3.494074 -13.237156 21.109172 -2.830944 0.431200 0.348981 -9.602858 7.125000 0.000000 0.000000 
9.557831 17.815967 -14.162567 -4.621488 -37.160023 3.955646 -12.286119 -1.331358 -7.393503 1.895070 11.376525 31.440230 -1.671503 9.563149 -13.478522 0.003000 0.352500 0.968400 11.256608 10.206809 -9.892144 -2.858210 -11.874945 32.770975 0.127854 -3.520419 -9.828887 -0.177300 -2.712300 7.478800 0.772282 -1.191424 -2.015960 7.802154 -0.422771 -2.623588 7.819549 -10.346199 15.018490 6.382000 -6.012500 10.570800 -87.992468 1.900277 26.583560 13.149674 -22.589674 -2.383588 0.697085 -0.012152 15.351490 -7.125000 0.000000 0.000000 82.335951 -5.113321 3.669984 -13.294126 21.198052 -2.854697 0.435351 0.358436 -9.889479 7.125000 0.000000 0.000000 
9.559437 17.813558 -14.157549 -4.457607 -37.137698 3.826087 -12.448511 -1.338706 -7.340343 1.892251 11.375019 31.434764 -1.655001 9.519409 -13.517365 0.003900 0.403800 1.109500 11.088999 10.121146 -9.853124 -2.857195 -11.877727 32.769990 0.100022 -3.384713 -9.879088 -0.188300 -2.794800 7.707900 0.760918 -1.247372 -1.990620 7.802045 -0.454552 -2.478333 7.379982 -10.262160 15.195709 6.112200 -5.970600 10.638600 -88.026423 1.827467 26.693454 13.126088 -22.564438 -2.377530 0.698418 -0.014436 14.845052 -7.125000 0.000000 0.000000 82.302334 -4.961823 3.574375 -13.293798 21.188509 -2.847418 0.441228 0.363598 -9.852879 7.125000 0.000000 0.000000 
9.562046 17.811651 -14.154037 -4.522076 -37.101336 3.847495 -12.425221 -1.467894 -7.249985 1.883999 11.364550 31.403826 -1.669964 9.574804 -13.554108 0.006400 0.515600 1.416800 11.146682 10.136431 -9.820634 -2.858368 -11.884459 32.782416 0.111076 -3.444902 -9.879980 -0.174200 -2.688700 7.413200 0.786384 -1.299309 -1.994212 7.790686 -0.479984 -2.402118 6.763302 -10.153834 15.607702 5.763400 -5.938800 10.854300 -88.156375 1.898344 26.620164 13.149266 -22.608492 -2.389718 0.700271 -0.020327 14.551575 -7.125000 0.000000 0.000000 82.217786 -4.879872 3.342617 -13.293484 21.193461 -2.849126 0.435931 0.362390 -9.843310 7.125000 0.000000 0.000000 
9.564254 17.809845 -14.148918 -4.469079 -37.138457 3.792840 -12.523326 -1.522680 -7.166612 1.877000 11.359097 31.383379 -1.699441 9.682014 -13.596321 0.006800 0.532900 1.464400 11.076130 10.176811 -9.769768 -2.857530 -11.885513 32.779491 0.099679 -3.381559 -9.865557 -0.190200 -2.808700 7.746600 0.773081 -1.272452 -1.988570 7.724658 -0.468717 -2.338953 6.480939 -10.150061 15.734062 5.592000 -5.939900 10.921100 -88.212121 1.900345 26.559464 13.113976 -22.555690 -2.375886 0.702325 -0.025991 14.544212 -7.125000 0.000000 0.000000 82.184714 -4.857070 3.090248 -13.309021 21.229103 -2.859161 0.431896 0.361221 -9.814561 7.125000 0.000000 0.000000 
9.565960 17.808941 -14.141993 -4.284227 -37.180729 3.646297 -12.730358 -1.604906 -7.075140 1.871212 11.359696 31.379165 -1.703248 9.718616 -13.697948 0.009000 0.614300 1.688000 10.869959 10.086648 -9.745696 -2.854523 -11.882606 32.765461 0.070096 -3.237233 -9.923170 -0.206500 -2.925700 8.071900 0.749781 -1.228377 -1.980800 7.717344 -0.448133 -2.298292 6.550842 -10.163501 15.709489 5.640000 -5.948800 10.905600 -88.267414 1.905554 26.553549 13.073138 -22.494632 -2.360455 0.703652 -0.031192 14.568448 -7.125000 0.000000 0.000000 82.125299 -4.878640 3.047307 -13.345250 21.288282 -2.871027 0.438869 0.367369 -9.918094 7.125000 0.000000 0.000000 
9.568269 17.810146 -14.138681 -4.347192 -37.170492 3.666689 -12.687473 -1.634519 -7.056074 1.869553 11.357321 31.372982 -1.688358 9.675410 -13.733267 0.012900 0.733000 2.014400 10.910672 10.026642 -9.747150 -2.852719 -11.881867 32.760317 0.076101 -3.280953 -9.973724 -0.175300 -2.697200 7.436800 0.768476 -1.207465 -1.996915 7.749448 -0.434313 -2.355369 6.722785 -10.164661 15.739806 5.767100 -5.962300 10.945400 -88.378341 2.032079 26.542577 13.084038 -22.508780 -2.365455 0.703576 -0.034054 14.684853 -7.125000 0.000000 0.000000 82.053930 -4.843552 2.732029 -13.331421 21.264527 -2.858452 0.444275 0.365855 -9.828510 7.125000 0.000000 0.000000 
9.570477 17.811450 -14.137176 -4.385312 -37.137181 3.713276 -12.660457 -1.618655 -7.100231 1.871390 11.356512 31.373118 -1.673137 9.615036 -13.685860 0.013300 0.744800 2.047000 10.932019 9.997396 -9.785431 -2.852679 -11.880889 32.759177 0.098742 -3.387691 -9.913976 -0.134700 -2.365400 6.516700 0.773678 -1.215740 -2.004132 7.753528 -0.436099 -2.373523 6.810224 -10.208202 15.701365 5.827600 -5.986800 10.938900 -88.439069 2.082616 26.506795 13.090952 -22.515444 -2.364770 0.705354 -0.034984 14.578341 -7.125000 0.000000 0.000000 82.081268 -4.642914 2.055296 -13.249393 21.128828 -2.813979 0.446570 0.356060 -9.357462 7.125000 0.000000 0.000000 
9.571380 17.810045 -14.136072 -4.289998 -37.149492 3.683065 -12.751616 -1.589528 -7.143401 1.875299 11.362730 31.391778 -1.681166 9.637298 -13.653961 0.006800 0.533800 1.466900 10.823730 9.973950 -9.819910 -2.853846 -11.879101 32.757850 0.090875 -3.321334 -9.807647 -0.137900 -2.393200 6.593700 0.760558 -1.226216 -1.990050 7.773029 -0.442587 -2.304868 6.825077 -10.262310 15.647186 5.822300 -6.005200 10.912500 -88.430828 1.965247 26.518464 13.031899 -22.422462 -2.337013 0.705387 -0.027494 14.176792 -7.125000 0.000000 0.000000 82.089361 -4.392691 1.653304 -13.143770 20.959602 -2.761542 0.451183 0.333725 -8.932255 7.125000 0.000000 0.000000 
9.572083 17.808138 -14.136975 -4.274801 -37.127537 3.688759 -12.746479 -1.541956 -7.191123 1.880868 11.367503 31.409986 -1.662038 9.568376 -13.623729 0.004900 0.452900 1.244400 10.802689 9.970495 -9.843775 -2.857673 -11.882585 32.773417 0.071841 -3.222119 -9.819540 -0.169900 -2.655500 7.321100 0.764341 -1.246910 -1.988121 7.820943 -0.453848 -2.266206 6.891110 -10.282215 15.766614 5.836800 -6.004700 11.028600 -88.409855 1.813462 26.558688 12.954950 -22.298362 -2.305411 0.700142 -0.011503 13.836973 -7.125000 0.000000 0.000000 82.058956 -4.208481 1.467355 -13.069525 20.842827 -2.728339 0.450804 0.312397 -8.731490 7.125000 0.000000 0.000000 
9.573889 17.807938 -14.139986 -4.289989 -36.983782 3.697616 -12.701674 -1.594838 -7.201141 1.883202 11.366725 31.411302 -1.632309 9.458184 -13.567283 0.008200 0.586500 1.611700 10.837372 9.965903 -9.855609 -2.864055 -11.893646 32.810842 0.073792 -3.264884 -9.961885 -0.192100 -2.822800 7.785700 0.776343 -1.299126 -2.001650 7.880085 -0.478858 -2.285536 6.890602 -10.298979 16.036107 5.788400 -5.994600 11.269400 -88.458373 1.761704 26.380891 12.928736 -22.253742 -2.294215 0.696961 -0.004923 13.798462 -7.125000 0.000000 0.000000 82.038311 -4.167570 1.565509 -13.113243 20.895976 -2.744117 0.450122 0.325569 -8.950651 7.125000 0.000000 0.000000 
9.575294 17.807737 -14.142595 -4.197749 -36.905393 3.603696 -12.759445 -1.525841 -7.205614 1.886513 11.367847 31.414593 -1.621671 9.407062 -13.476771 0.007700 0.565800 1.554700 10.772994 9.988183 -9.808762 -2.871668 -11.906943 32.851871 0.079637 -3.302832 -9.991499 -0.189400 -2.802800 7.730200 0.760092 -1.288002 -2.004891 7.878070 -0.473194 -2.312835 6.930600 -10.381329 16.054500 5.774900 -6.016700 11.329700 -88.527734 1.822774 26.234017 12.898012 -22.205216 -2.283430 0.698177 -0.012804 13.961255 -7.125000 0.000000 0.000000 82.034912 -4.260017 1.710760 -13.198743 21.017618 -2.775450 0.455872 0.348980 -9.345828 7.125000 0.000000 0.000000 
